<?xml version="1.0" encoding="UTF-8" ?>
<!DOCTYPE svg PUBLIC "-//W3C//DTD SVG 1.1//EN" "http://www.w3.org/Graphics/SVG/1.1/DTD/svg11.dtd">
<svg width="567pt" height="155pt" viewBox="0 0 567 155" version="1.1" xmlns="http://www.w3.org/2000/svg">
<path fill="#ffffff" d=" M 0.00 0.00 L 567.00 0.00 L 567.00 155.00 L 0.00 155.00 L 0.00 0.00 Z" />
<path fill="#f4710f" d=" M 22.16 17.02 C 31.74 17.01 41.33 17.01 50.92 17.02 C 54.53 42.37 58.65 67.65 62.15 93.01 C 55.61 92.95 49.08 92.97 42.54 92.79 C 42.07 88.20 41.58 83.61 41.03 79.03 C 39.32 79.03 35.89 79.03 34.18 79.03 C 33.72 83.58 33.19 88.12 32.65 92.66 C 26.00 92.84 19.35 92.97 12.69 93.05 C 14.83 67.59 19.43 42.42 22.16 17.02 Z" />
<path fill="#f4710f" d=" M 146.00 17.00 C 152.33 17.00 158.67 17.00 165.01 17.00 C 164.98 22.57 164.96 28.14 164.94 33.71 C 170.05 31.04 176.28 28.75 181.95 30.99 C 186.00 32.36 189.07 36.13 189.44 40.41 C 190.77 57.90 189.78 75.47 189.99 93.00 C 183.65 93.00 177.33 93.00 170.99 93.00 C 171.02 75.67 171.33 58.33 170.27 41.02 C 168.76 41.02 167.24 41.02 165.73 41.02 C 164.67 58.33 164.98 75.67 165.00 93.00 C 158.66 93.00 152.33 93.00 146.00 93.00 C 146.00 67.67 146.00 42.33 146.00 17.00 Z" />
<path fill="#f4710f" d=" M 433.00 17.00 C 439.32 17.00 445.66 17.00 452.00 17.00 C 452.00 19.50 452.00 24.50 452.00 27.00 C 445.65 27.00 439.33 27.00 433.00 27.00 C 433.00 24.50 433.00 19.50 433.00 17.00 Z" />
<path fill="#f4710f" d=" M 292.20 23.04 C 298.36 23.03 304.52 23.03 310.68 23.04 C 311.56 29.24 316.10 35.47 313.68 41.84 C 309.80 54.66 310.95 68.16 311.19 81.35 C 315.57 83.80 316.78 88.54 318.14 93.05 C 309.94 92.12 297.93 96.19 293.07 86.95 C 290.61 72.33 293.48 57.17 290.30 42.57 C 288.21 36.00 291.12 29.43 292.20 23.04 Z" />
<path fill="#f4710f" d=" M 405.20 23.04 C 411.35 23.03 417.52 23.03 423.68 23.04 C 424.56 29.24 429.10 35.47 426.68 41.84 C 422.80 54.66 423.95 68.16 424.19 81.35 C 428.57 83.80 429.78 88.54 431.14 93.05 C 422.94 92.12 410.93 96.19 406.07 86.95 C 403.61 72.33 406.48 57.17 403.30 42.57 C 401.21 36.00 404.12 29.43 405.20 23.04 Z" />
<path fill="#f4710f" d=" M 83.00 37.88 C 86.56 34.55 90.22 31.23 94.63 29.04 C 94.83 36.41 94.92 43.79 94.93 51.16 C 91.55 52.58 85.26 52.59 84.52 57.38 C 83.43 69.22 84.02 81.13 83.98 93.00 C 77.65 93.00 71.33 93.00 65.00 93.00 C 65.00 72.33 65.00 51.66 65.00 30.99 C 71.36 31.00 77.73 31.00 84.09 31.02 C 83.73 33.31 83.37 35.60 83.00 37.88 Z" />
<path fill="#f4710f" d=" M 99.54 44.59 C 102.05 29.14 123.48 26.21 134.35 34.62 C 140.81 38.67 139.82 47.47 141.58 53.91 C 135.41 53.95 129.25 53.98 123.09 54.01 C 122.96 49.77 122.87 45.53 122.70 41.29 C 121.25 41.28 119.80 41.28 118.36 41.28 C 117.98 53.53 117.55 65.80 118.02 78.06 C 117.87 81.01 120.75 82.46 122.68 84.09 C 123.39 78.42 123.83 72.71 124.23 67.00 C 129.98 67.01 135.72 67.01 141.48 67.01 C 141.12 73.77 141.36 81.22 136.74 86.77 C 131.31 94.62 120.35 95.09 111.97 93.02 C 105.83 91.72 100.45 86.49 100.00 80.05 C 98.20 68.35 98.49 56.34 99.54 44.59 Z" />
<path fill="#f4710f" d=" M 199.34 37.32 C 208.50 26.89 227.04 27.64 235.69 38.31 C 239.58 45.83 238.59 54.78 239.23 62.99 C 231.13 62.98 223.03 63.02 214.94 63.00 C 215.01 69.52 215.04 76.04 215.18 82.56 C 216.65 82.76 218.11 82.96 219.58 83.16 C 220.31 77.79 220.79 72.39 221.27 67.00 C 227.37 67.00 233.48 67.01 239.59 67.03 C 238.47 75.03 238.98 85.40 231.45 90.50 C 222.18 96.09 209.14 95.20 200.86 88.14 C 194.56 81.19 196.29 70.60 195.76 62.00 C 196.28 53.87 194.83 44.61 199.34 37.32 Z" />
<path fill="#f4710f" d=" M 256.82 30.70 C 264.74 29.43 274.38 29.43 280.32 35.68 C 284.79 39.36 283.41 45.96 284.74 50.92 C 278.86 50.95 273.00 50.98 267.13 51.01 C 266.97 47.80 266.89 44.60 266.73 41.39 C 265.13 41.22 263.54 41.06 261.95 40.91 C 261.57 43.94 261.22 46.98 260.88 50.01 C 268.08 54.83 276.22 58.42 282.62 64.37 C 286.62 71.01 285.35 79.84 282.82 86.79 C 273.88 97.14 255.50 96.38 246.24 86.77 C 244.74 81.64 244.24 76.31 243.57 71.03 C 249.28 71.02 255.01 71.02 260.74 71.02 C 261.20 75.41 261.67 79.81 262.27 84.19 C 268.26 83.33 267.54 77.42 268.60 73.09 C 262.32 69.11 255.35 66.13 249.58 61.39 C 243.42 56.20 243.03 47.23 244.89 39.95 C 246.32 34.61 251.65 31.51 256.82 30.70 Z" />
<path fill="#f4710f" d=" M 338.00 37.88 C 341.56 34.55 345.22 31.23 349.63 29.04 C 349.82 36.41 349.91 43.79 349.93 51.16 C 346.55 52.58 340.26 52.59 339.52 57.38 C 338.43 69.22 339.02 81.13 338.98 93.00 C 332.65 93.00 326.33 93.00 320.00 93.00 C 319.99 72.33 320.00 51.66 320.00 30.99 C 326.36 31.00 332.73 31.00 339.09 31.02 C 338.73 33.31 338.36 35.60 338.00 37.88 Z" />
<path fill="#f4710f" d=" M 358.80 35.81 C 364.12 30.13 372.69 29.88 379.90 30.13 C 387.57 30.75 396.56 36.14 396.30 44.82 C 397.77 60.83 396.81 76.95 396.99 93.00 C 391.00 92.99 385.02 92.99 379.04 93.00 C 378.99 91.63 378.93 90.27 378.88 88.90 C 375.01 91.50 370.96 94.44 365.96 93.94 C 360.62 94.03 354.91 90.24 354.45 84.60 C 354.26 78.10 352.22 70.16 356.53 64.53 C 361.99 59.99 369.17 58.56 375.28 55.19 C 380.36 52.34 376.64 45.52 376.70 40.82 C 375.24 41.02 373.78 41.22 372.33 41.42 C 372.17 45.94 372.05 50.48 371.93 55.01 C 365.79 55.00 359.66 54.99 353.52 54.98 C 354.45 48.60 353.12 40.47 358.80 35.81 Z" />
<path fill="#f4710f" d=" M 473.44 30.52 C 482.53 28.63 493.44 31.07 498.59 39.37 C 502.30 48.06 500.88 57.83 501.16 67.02 C 501.01 74.29 501.25 83.03 495.51 88.51 C 490.00 94.37 480.84 94.36 473.44 93.53 C 468.04 92.98 462.12 90.36 460.12 84.94 C 456.53 72.72 457.86 59.70 458.33 47.15 C 458.92 39.08 465.07 31.24 473.44 30.52 Z" />
<path fill="#f4710f" d=" M 527.39 33.87 C 532.11 30.95 538.51 28.34 543.84 31.15 C 548.74 33.12 550.51 38.15 550.62 43.10 C 551.64 59.71 550.82 76.37 550.98 93.00 C 544.64 93.00 538.32 93.00 532.00 93.00 C 532.00 75.75 532.13 58.50 531.73 41.26 C 529.92 41.24 528.12 41.24 526.33 41.25 C 525.84 58.49 525.99 75.75 526.00 93.00 C 519.65 93.00 513.33 93.00 507.00 93.00 C 506.99 72.24 507.00 51.48 507.00 30.73 C 513.62 31.85 522.03 28.48 527.39 33.87 Z" />
<path fill="#f4710f" d=" M 433.00 31.00 C 439.32 31.00 445.66 31.00 452.00 31.00 C 452.00 51.67 452.00 72.33 452.00 93.00 C 445.65 93.00 439.33 93.00 433.00 93.00 C 432.99 72.33 433.00 51.67 433.00 31.00 Z" />
<path fill="#ffffff" d=" M 33.81 65.97 C 34.55 55.82 35.72 45.71 37.40 35.68 C 38.44 45.80 39.27 55.95 40.60 66.04 C 38.91 66.02 35.51 65.98 33.81 65.97 Z" />
<path fill="#ffffff" d=" M 215.34 41.29 C 216.75 41.28 218.16 41.27 219.58 41.28 C 219.75 45.18 219.92 49.09 220.08 52.99 L 214.89 52.99 C 215.03 49.09 215.18 45.19 215.34 41.29 Z" />
<path fill="#ffffff" d=" M 477.32 41.28 C 478.77 41.27 480.22 41.27 481.68 41.28 C 482.10 55.09 482.10 68.91 481.68 82.72 C 480.22 82.72 478.77 82.72 477.32 82.72 C 476.89 68.91 476.89 55.09 477.32 41.28 Z" />
<path fill="#ffffff" d=" M 372.62 70.41 C 373.89 67.85 375.83 65.69 377.48 63.36 C 377.68 69.77 377.86 76.19 377.86 82.61 C 376.11 82.78 374.35 82.94 372.61 83.10 C 372.52 78.87 372.12 74.61 372.62 70.41 Z" />
<path fill="#4c4949" d=" M 86.00 99.00 L 91.00 99.00 C 90.99 104.44 90.98 109.88 90.97 115.32 C 95.01 114.96 100.44 112.64 102.67 117.31 C 104.81 123.19 103.58 129.84 104.25 135.99 L 99.00 136.00 C 99.01 130.51 99.02 125.02 99.03 119.53 C 96.67 119.13 94.29 118.83 91.91 118.60 C 91.42 124.38 91.08 130.18 90.74 135.98 L 86.00 136.00 C 86.00 123.66 86.00 111.33 86.00 99.00 Z" />
<path fill="#4c4949" d=" M 260.00 99.00 L 265.00 99.00 C 265.00 111.33 265.00 123.67 265.00 136.00 L 260.00 136.00 C 260.00 123.67 260.00 111.33 260.00 99.00 Z" />
<path fill="#4c4949" d=" M 358.00 99.00 L 363.00 99.00 C 362.98 104.44 362.98 109.88 362.97 115.32 C 367.01 114.96 372.43 112.64 374.67 117.31 C 376.81 123.19 375.58 129.84 376.25 135.99 L 371.00 136.00 C 371.00 130.51 371.01 125.02 371.03 119.53 C 368.67 119.13 366.29 118.83 363.91 118.60 C 363.42 124.38 363.07 130.18 362.74 135.98 L 358.00 136.00 C 358.00 123.66 358.00 111.33 358.00 99.00 Z" />
<path fill="#4c4949" d=" M 28.84 100.50 C 34.75 112.41 40.45 124.48 45.07 136.95 C 38.98 137.16 37.82 131.22 35.37 127.25 C 31.10 127.19 26.83 127.13 22.55 127.08 C 20.07 131.29 17.85 136.37 12.07 136.70 C 17.45 124.54 23.14 112.51 28.84 100.50 Z" />
<path fill="#4c4949" d=" M 293.40 101.42 C 304.07 98.26 315.70 108.11 315.01 119.04 C 315.36 124.78 311.55 129.88 307.48 133.50 C 298.63 139.28 283.92 135.90 281.07 124.89 C 276.93 115.30 283.53 103.80 293.40 101.42 Z" />
<path fill="#4c4949" d=" M 110.25 103.12 C 114.54 100.73 117.32 108.05 112.90 109.00 C 109.19 110.40 107.41 104.98 110.25 103.12 Z" />
<path fill="#4c4949" d=" M 495.25 103.12 C 499.54 100.73 502.31 108.05 497.90 109.00 C 494.19 110.40 492.41 104.98 495.25 103.12 Z" />
<path fill="#ffffff" d=" M 297.22 105.53 C 305.07 104.86 310.92 112.62 309.84 120.00 C 309.87 128.04 300.40 134.85 292.95 131.05 C 284.32 127.98 282.28 114.91 289.02 109.01 C 291.26 106.98 294.19 105.71 297.22 105.53 Z" />
<path fill="#4c4949" d=" M 120.31 135.98 C 120.12 126.01 116.21 114.96 122.13 105.77 C 123.80 109.75 126.33 113.29 128.27 117.13 C 127.71 118.28 126.88 119.25 126.13 120.27 C 125.59 125.50 125.18 130.74 124.79 135.99 L 120.31 135.98 Z" />
<path fill="#4c4949" d=" M 179.31 135.98 C 179.12 126.01 175.21 114.96 181.13 105.77 C 182.79 109.75 185.33 113.29 187.27 117.13 C 186.71 118.28 185.88 119.25 185.13 120.27 C 184.59 125.50 184.18 130.74 183.79 135.99 L 179.31 135.98 Z" />
<path fill="#4c4949" d=" M 425.31 135.98 C 425.12 126.01 421.21 114.96 427.13 105.77 C 428.78 109.75 431.34 113.29 433.27 117.13 C 432.71 118.28 431.87 119.25 431.13 120.27 C 430.58 125.50 430.18 130.74 429.79 135.99 L 425.31 135.98 Z" />
<path fill="#4c4949" d=" M 482.31 135.98 C 482.12 126.01 478.21 114.96 484.13 105.77 C 485.77 109.75 488.34 113.29 490.27 117.13 C 489.71 118.28 488.87 119.25 488.13 120.27 C 487.58 125.50 487.18 130.74 486.79 135.99 L 482.31 135.98 Z" />
<path fill="#ffffff" d=" M 23.82 122.88 C 25.43 119.12 27.01 115.36 28.68 111.63 C 30.48 115.41 32.23 119.20 34.00 122.99 C 31.45 122.96 26.36 122.91 23.82 122.88 Z" />
<path fill="#4c4949" d=" M 48.05 115.11 C 53.09 115.01 58.28 114.17 63.19 115.78 C 60.34 117.59 57.14 118.68 53.89 119.51 C 53.43 124.99 53.08 130.48 52.73 135.98 L 47.99 136.00 C 48.00 129.04 48.01 122.07 48.05 115.11 Z" />
<path fill="#4c4949" d=" M 64.93 120.95 C 67.27 113.13 81.84 110.32 83.08 120.53 C 79.58 119.91 75.91 117.95 72.36 119.33 C 68.48 121.51 67.85 127.89 71.28 130.75 C 75.04 132.35 79.27 130.44 83.12 129.94 C 81.12 132.59 80.31 138.69 74.95 136.11 C 67.62 136.58 61.04 127.72 64.93 120.95 Z" />
<path fill="#4c4949" d=" M 135.70 116.71 C 139.61 112.21 147.64 113.27 150.86 118.05 C 152.36 120.33 153.04 123.00 154.15 125.47 C 148.44 125.84 142.73 126.23 137.03 126.64 C 137.95 128.43 138.92 130.20 139.89 131.97 C 144.48 131.05 149.00 129.52 153.71 129.33 C 151.35 132.97 148.26 137.50 143.00 136.02 C 132.64 138.17 127.80 122.24 135.70 116.71 Z" />
<path fill="#4c4949" d=" M 157.93 120.95 C 160.27 113.13 174.84 110.32 176.08 120.53 C 172.58 119.91 168.91 117.95 165.36 119.33 C 161.48 121.51 160.85 127.89 164.28 130.75 C 168.04 132.35 172.27 130.44 176.12 129.94 C 174.12 132.59 173.30 138.69 167.95 136.11 C 160.62 136.58 154.04 127.72 157.93 120.95 Z" />
<path fill="#4c4949" d=" M 191.75 114.01 L 196.57 114.01 C 196.68 119.25 196.97 124.48 197.42 129.70 C 199.06 131.32 201.29 132.09 203.32 133.10 C 204.36 126.79 204.75 120.39 205.39 114.03 L 210.39 114.01 C 209.10 120.94 212.85 131.14 205.61 135.74 C 201.46 135.93 195.54 137.37 193.34 132.68 C 191.19 126.80 192.41 120.15 191.75 114.01 Z" />
<path fill="#4c4949" d=" M 216.05 115.11 C 221.09 115.01 226.28 114.17 231.19 115.78 C 228.34 117.59 225.14 118.68 221.89 119.51 C 221.42 124.99 221.07 130.48 220.73 135.98 L 215.99 136.00 C 215.99 129.04 216.01 122.07 216.05 115.11 Z" />
<path fill="#4c4949" d=" M 234.23 118.22 C 238.67 111.24 247.43 116.74 253.90 115.80 C 253.94 122.36 253.97 128.92 253.98 135.48 C 248.15 134.26 241.84 137.09 236.29 134.71 C 231.67 130.92 229.87 122.86 234.23 118.22 Z" />
<path fill="#4c4949" d=" M 320.05 115.11 C 325.09 115.01 330.28 114.17 335.19 115.78 C 332.34 117.59 329.14 118.68 325.89 119.51 C 325.42 124.99 325.07 130.48 324.73 135.98 L 319.99 136.00 C 319.99 129.04 320.01 122.07 320.05 115.11 Z" />
<path fill="#4c4949" d=" M 336.93 120.95 C 339.27 113.13 353.84 110.32 355.08 120.53 C 351.58 119.91 347.91 117.95 344.36 119.33 C 340.48 121.51 339.84 127.89 343.28 130.75 C 347.04 132.35 351.27 130.44 355.12 129.94 C 353.12 132.59 352.30 138.69 346.95 136.11 C 339.62 136.58 333.03 127.72 336.93 120.95 Z" />
<path fill="#4c4949" d=" M 384.70 116.71 C 388.61 112.21 396.63 113.27 399.86 118.05 C 401.37 120.33 402.01 123.00 403.15 125.47 C 397.43 125.84 391.73 126.23 386.03 126.64 C 386.95 128.43 387.91 130.20 388.89 131.97 C 393.47 131.05 398.00 129.52 402.71 129.33 C 400.35 132.97 397.26 137.50 392.00 136.02 C 381.64 138.17 376.80 122.24 384.70 116.71 Z" />
<path fill="#4c4949" d=" M 409.30 115.19 C 412.49 114.42 415.83 115.04 419.07 115.19 C 419.02 116.27 418.91 118.45 418.86 119.53 C 416.75 119.28 414.66 118.99 412.57 118.65 C 412.47 119.07 412.25 119.92 412.15 120.34 C 415.83 123.14 423.05 125.36 420.65 131.65 C 419.37 136.63 413.05 135.43 409.12 136.45 C 408.03 134.56 406.97 132.67 405.91 130.78 C 409.50 130.81 413.09 131.27 416.68 130.97 C 413.60 127.60 409.82 124.98 406.24 122.18 C 407.18 119.85 407.80 117.27 409.30 115.19 Z" />
<path fill="#4c4949" d=" M 438.05 115.11 C 443.09 115.01 448.28 114.17 453.19 115.78 C 450.33 117.59 447.14 118.68 443.89 119.51 C 443.42 124.99 443.07 130.48 442.73 135.98 L 437.99 136.00 C 437.99 129.04 438.01 122.07 438.05 115.11 Z" />
<path fill="#4c4949" d=" M 456.23 118.22 C 460.66 111.24 469.43 116.74 475.90 115.80 C 475.94 122.36 475.96 128.92 475.98 135.48 C 470.15 134.26 463.84 137.09 458.29 134.71 C 453.67 130.92 451.87 122.86 456.23 118.22 Z" />
<path fill="#4c4949" d=" M 512.44 114.47 C 521.02 111.36 530.02 121.05 526.40 129.38 C 523.27 136.99 511.77 138.77 506.71 132.30 C 500.76 126.96 504.86 115.75 512.44 114.47 Z" />
<path fill="#4c4949" d=" M 532.05 115.23 C 537.40 116.31 546.06 111.31 549.00 117.95 C 550.36 123.82 549.82 130.00 550.25 135.99 L 545.02 136.00 C 544.99 130.68 544.97 125.36 544.96 120.05 C 543.66 119.36 542.37 118.67 541.08 117.98 C 540.01 118.39 538.93 118.80 537.87 119.21 C 537.41 124.79 537.06 130.38 536.74 135.98 L 531.99 136.00 C 531.99 129.07 532.01 122.15 532.05 115.23 Z" />
<path fill="#4c4949" d=" M 110.00 115.00 L 115.00 115.00 C 115.00 122.00 115.00 129.00 115.00 136.00 L 110.00 136.00 C 109.99 129.00 109.99 122.00 110.00 115.00 Z" />
<path fill="#4c4949" d=" M 495.00 115.00 L 500.00 115.00 C 500.00 122.00 500.00 129.00 500.00 136.00 L 495.00 136.00 C 494.99 129.00 494.99 122.00 495.00 115.00 Z" />
<path fill="#ffffff" d=" M 137.10 120.80 C 138.99 119.93 140.88 118.90 142.97 118.60 C 145.04 119.07 146.85 120.27 148.71 121.25 C 145.80 121.14 140.00 120.92 137.10 120.80 Z" />
<path fill="#ffffff" d=" M 242.29 118.30 C 249.05 118.01 251.16 128.39 245.71 131.89 C 236.34 135.67 234.13 120.15 242.29 118.30 Z" />
<path fill="#ffffff" d=" M 386.10 120.80 C 387.99 119.93 389.88 118.90 391.97 118.60 C 394.04 119.07 395.85 120.27 397.71 121.25 C 394.80 121.14 389.00 120.92 386.10 120.80 Z" />
<path fill="#ffffff" d=" M 464.29 118.30 C 471.05 118.01 473.16 128.39 467.71 131.89 C 458.34 135.67 456.13 120.15 464.29 118.30 Z" />
<path fill="#ffffff" d=" M 515.20 118.49 C 520.09 118.18 523.49 123.98 521.43 128.37 C 519.66 133.21 511.34 133.21 509.57 128.37 C 507.65 124.20 510.55 118.65 515.20 118.49 Z" />
<path fill="#4c4949" d=" M 268.00 123.00 C 270.50 123.00 275.50 123.00 278.00 123.00 C 278.00 124.33 278.00 125.67 278.00 127.00 C 275.50 127.00 270.50 127.00 268.00 127.00 C 268.00 125.67 268.00 124.33 268.00 123.00 Z" />
</svg>
